<svg width="52" height="48" viewBox="0 0 52 48" fill="none" xmlns="http://www.w3.org/2000/svg">
<ellipse cx="26" cy="24" rx="26" ry="24" fill="#F7FBFF"/>
<path d="M15.6802 22.6933V29.3199C15.6802 31.7466 15.6802 31.7466 17.9735 33.2933L24.2802 36.9333C25.2268 37.4799 26.7735 37.4799 27.7202 36.9333L34.0268 33.2933C36.3202 31.7466 36.3202 31.7466 36.3202 29.3199V22.6933C36.3202 20.2666 36.3202 20.2666 34.0268 18.7199L27.7202 15.0799C26.7735 14.5333 25.2268 14.5333 24.2802 15.0799L17.9735 18.7199C15.6802 20.2666 15.6802 20.2666 15.6802 22.6933Z" stroke="#292D32" stroke-width="1.5" stroke-linecap="round" stroke-linejoin="round"/>
<path d="M33.3332 18.1734V14.6667C33.3332 12.0001 31.9998 10.6667 29.3332 10.6667H22.6665C19.9998 10.6667 18.6665 12.0001 18.6665 14.6667V18.0801" stroke="#292D32" stroke-width="1.5" stroke-linecap="round" stroke-linejoin="round"/>
<path d="M26.8399 22.6533L27.5999 23.8399C27.7199 24.0266 27.9865 24.2133 28.1865 24.2666L29.5465 24.6133C30.3865 24.8266 30.6132 25.5466 30.0665 26.2133L29.1732 27.2933C29.0399 27.4666 28.9332 27.7733 28.9465 27.9866L29.0265 29.3866C29.0799 30.2533 28.4665 30.6933 27.6665 30.3733L26.3599 29.8533C26.1599 29.7733 25.8265 29.7733 25.6265 29.8533L24.3199 30.3733C23.5199 30.6933 22.9065 30.2399 22.9599 29.3866L23.0399 27.9866C23.0532 27.7733 22.9465 27.4533 22.8132 27.2933L21.9199 26.2133C21.3732 25.5466 21.5999 24.8266 22.4399 24.6133L23.7999 24.2666C24.0132 24.2133 24.2799 24.0133 24.3865 23.8399L25.1465 22.6533C25.6265 21.9333 26.3732 21.9333 26.8399 22.6533Z" stroke="#292D32" stroke-width="1.5" stroke-linecap="round" stroke-linejoin="round"/>
</svg>
