<svg width="32" height="32" viewBox="0 0 32 32" fill="none" xmlns="http://www.w3.org/2000/svg">
<path d="M29.3333 20C29.3333 25.16 25.16 29.3333 20 29.3333L21.4 27" stroke="#292D32" stroke-width="1.5" stroke-linecap="round" stroke-linejoin="round"/>
<path d="M2.6665 12.0001C2.6665 6.84008 6.83984 2.66675 11.9998 2.66675L10.5998 5.00008" stroke="#292D32" stroke-width="1.5" stroke-linecap="round" stroke-linejoin="round"/>
<path d="M18.2666 5.93335L23.5733 9L28.8266 5.9467" stroke="#292D32" stroke-width="1.5" stroke-linecap="round" stroke-linejoin="round"/>
<path d="M23.5732 14.4266V8.98657" stroke="#292D32" stroke-width="1.5" stroke-linecap="round" stroke-linejoin="round"/>
<path d="M22.3198 2.94675L19.1198 4.72002C18.3998 5.12002 17.7998 6.13335 17.7998 6.96001V10.3467C17.7998 11.1734 18.3865 12.1867 19.1198 12.5867L22.3198 14.3601C22.9998 14.7467 24.1198 14.7467 24.8131 14.3601L28.0131 12.5867C28.7331 12.1867 29.3331 11.1734 29.3331 10.3467V6.96001C29.3331 6.13335 28.7465 5.12002 28.0131 4.72002L24.8131 2.94675C24.1331 2.57341 23.0131 2.57341 22.3198 2.94675Z" stroke="#292D32" stroke-width="1.5" stroke-linecap="round" stroke-linejoin="round"/>
<path d="M3.1333 20.5999L8.42664 23.6665L13.6933 20.6132" stroke="#292D32" stroke-width="1.5" stroke-linecap="round" stroke-linejoin="round"/>
<path d="M8.42676 29.0931V23.6531" stroke="#292D32" stroke-width="1.5" stroke-linecap="round" stroke-linejoin="round"/>
<path d="M7.1865 17.6133L3.98651 19.3865C3.26651 19.7865 2.6665 20.7999 2.6665 21.6265V25.0132C2.6665 25.8399 3.25318 26.8532 3.98651 27.2532L7.1865 29.0266C7.8665 29.4132 8.9865 29.4132 9.67983 29.0266L12.8798 27.2532C13.5998 26.8532 14.1998 25.8399 14.1998 25.0132V21.6265C14.1998 20.7999 13.6132 19.7865 12.8798 19.3865L9.67983 17.6133C8.9865 17.2399 7.8665 17.2399 7.1865 17.6133Z" stroke="#292D32" stroke-width="1.5" stroke-linecap="round" stroke-linejoin="round"/>
</svg>
